<?xml version="1.0" encoding="UTF-8"?>
<svg id="Calque_2" data-name="Calque 2" xmlns="http://www.w3.org/2000/svg" viewBox="0 0 494.29 201.48">
  <defs>
    <style>
      .cls-1 {
        fill: #fafafa;
      }
    </style>
  </defs>
  <g id="Calque_1-2" data-name="Calque 1">
    <g>
      <g id="Calque_1-2" data-name="Calque 1-2">
        <g>
          <g>
            <path class="cls-1" d="m108.15,120.68c-21.41,0-38.76,17.35-38.76,38.76,2.04,51.42,75.49,51.4,77.52,0,0-21.41-17.35-38.76-38.76-38.76Zm0,66.83c-15.5,0-28.07-12.57-28.07-28.07,1.48-37.24,54.67-37.23,56.14,0,0,15.5-12.57,28.07-28.07,28.07Z"/>
            <path class="cls-1" d="m108.15,138.66c-11.48,0-20.79,9.31-20.79,20.79,1.09,27.57,40.48,27.56,41.57,0,0-11.48-9.31-20.79-20.79-20.79h.01Z"/>
          </g>
          <path class="cls-1" d="m108.15,0C-2.34,1.03-40.57,145.16,52.44,201.48c-2.2-44.8-1.21-92.5,55.71-96.03,56.93,3.53,57.9,51.25,55.71,96.03C256.92,145.11,218.57,1.01,108.15,0Zm.15,100.74c-15.91,0-26.09-16.04-27.86-27.86-4.13-27.57,34.67-51.55,36.72-49.78-27.91,37.58,16.4,30.05,19,49.78,0,15.39-12.47,27.86-27.86,27.86Z"/>
        </g>
      </g>
      <g>
        <path class="cls-1" d="m270.7,78.38h-23.59c-.7,3.85-1.05,7.91-1.05,12.25,0,2.94-.14,3.15-3.29,3.15-2.66,0-3.01-.14-3.01-3.29,0-21.91,8.68-36.82,15.4-45.43,9.65-10.02,24.18,28.69,22.96,45.43,0,3.15-.35,3.29-3.43,3.29-2.8,0-2.8-.14-2.87-3.15,0-4.34-.42-8.4-1.12-12.25Zm-22.54-4.9h21.56c-3.57-14.49-10.36-23.66-10.78-23.66s-7.28,9.1-10.78,23.66Z"/>
        <path class="cls-1" d="m295.48,65.43c2.24-6.23,7.14-9.24,12.04-9.24,4.21.11,5.08.46,3.92,4.41-.28,1.05-.77,1.26-1.89,1.05-12.86-3.31-15.05,12.57-14.21,28.49,0,3.36-.21,3.64-3.36,3.64-2.52,0-2.66-.35-2.66-3.64.05-7.64-.16-25.1-.21-31.08,0-2.03.07-2.17,3.57-2.17,2.73,0,2.8.07,2.8,3.08v5.46Z"/>
        <path class="cls-1" d="m320.82,56.89c-.27-5.1.14-10.78,4.41-10.15,1.82,0,1.75.21,1.75,3.78v6.37h8.61c1.05,0,2.1.21,2.1,1.96.24,1.76-.39,3.32-2.1,3.08,0,0-8.68,0-8.68,0v21.63c-.64,6.65,5.99,6.95,9.59,4.69,1.43-.8,2.19,1.14,2.38,2.45.98,2.74-4.89,3.48-8.47,3.78-6.58,0-9.45-3.43-9.45-9.8,0-8.68-.14-15.82-.14-22.75-2.55-.18-6,1.07-5.39-3.08-.08-3.08,3.66-1.64,5.39-1.96Z"/>
        <path class="cls-1" d="m346.23,50.31c0-3.43,1.26-3.78,3.71-3.78,3.08,0,3.43.35,3.43,2.45.27,3.36-.89,4.93-3.78,4.62-3.53.16-3.4-.84-3.36-3.29Zm.21,8.75c0-2.03.14-2.17,3.57-2.17,2.73,0,2.87.07,2.87,3.08-.03,9.59-.19,20.46-.14,30.17,0,3.43-.28,3.64-3.36,3.64-2.52,0-2.73-.21-2.73-3.64.06-7.65-.16-25.09-.21-31.08Z"/>
        <path class="cls-1" d="m382.49,83.98c0-9.45-19.04-3.71-19.04-17.43,0-8.54,7.42-10.36,13.3-10.36,4.41,0,8.54.91,10.01,1.47,2.3.57,1.32,2.19.77,3.64-.24,3.13-17.68-5.66-18.27,4.97,0,9.31,19.11,3.22,19.11,17.43-.08,13.97-17.67,10.88-24.85,9.59-1.9-.29-1.38-1.92-.98-3.36.14-4.28,19.4,5.6,19.95-5.95Z"/>
        <path class="cls-1" d="m399.08,56.89c-.27-5.1.14-10.78,4.41-10.15,1.82,0,1.75.21,1.75,3.78v6.37h8.61c1.05,0,2.1.21,2.1,1.96.24,1.76-.39,3.32-2.1,3.08,0,0-8.68,0-8.68,0v21.63c-.64,6.65,5.99,6.95,9.59,4.69,1.43-.8,2.19,1.14,2.38,2.45.98,2.74-4.89,3.48-8.47,3.78-6.58,0-9.45-3.43-9.45-9.8,0-8.68-.14-15.82-.14-22.75-2.55-.18-6,1.07-5.39-3.08-.08-3.08,3.66-1.64,5.39-1.96Z"/>
        <path class="cls-1" d="m248.16,154.12v20.3c0,3.15-.42,3.36-3.71,3.36-2.45,0-2.59-.42-2.59-3.57v-23.38c0-4.83-.21-18.69-.21-21.21,0-2.1.07-2.24,3.57-2.24h23.8c2.19-.25,1.95,1.71,1.68,3.36-.21,1.47-1.05,1.68-2.03,1.68h-20.37c-.07,5.6-.14,10.99-.14,16.66h19.18c1.47,0,2.03.35,1.82,2.03.01,1.53-.6,3.32-2.17,3.01,0,0-18.83,0-18.83,0Z"/>
        <path class="cls-1" d="m290.44,156.5c4.76,0,8.82,1.61,10.99,5.04,1.61-16.87-5.7-18.03-18.27-14.7-1.12.42-1.82.28-2.31-1.05-3.33-5.13,6.95-5.18,12.18-5.6,19.37-1.04,13.61,20.29,14.42,33.95,0,3.43-.21,3.64-3.36,3.64-2.64.19-2.7-.8-2.66-4.06-5.61,8.31-24.63,5.57-23.52-6.09,0-7,5.04-11.13,12.53-11.13Zm-6.09,11.06c-.95,9.71,17.73,9.27,17.08,0,.74-9.48-18.06-9.98-17.08,0Z"/>
        <path class="cls-1" d="m325.79,150.83v23.31c0,3.43-.28,3.64-3.43,3.64-2.45,0-2.66-.21-2.66-3.64.06-11.65-.06-35.93-.21-46.35,0-2.03.14-2.17,3.57-2.17,2.73,0,2.87.07,2.87,3.08,0,7-.14,14.98-.14,22.12Z"/>
        <path class="cls-1" d="m353.58,173.65c2.52,0,5.46-.91,6.86-1.33,2.14-.66,1.97,1.29,2.31,2.59.55,3.15-6.41,3.21-10.29,3.57-10.57,0-16.17-6.23-16.17-19.18s5.74-19.11,16.17-19.11c4.08.36,10.71.54,10.36,3.57-.33,5.74-4.78,1.06-9.24,1.61-14.9-1.58-14.8,29.82,0,28.28Z"/>
        <path class="cls-1" d="m379.13,149.43c2.24-6.23,7.14-9.24,12.04-9.24,4.21.11,5.08.46,3.92,4.41-.28,1.05-.77,1.26-1.89,1.05-12.86-3.31-15.05,12.57-14.21,28.49,0,3.36-.21,3.64-3.36,3.64-2.52,0-2.66-.35-2.66-3.64.05-7.64-.16-25.1-.21-31.08,0-2.03.07-2.17,3.57-2.17,2.73,0,2.8.07,2.8,3.08v5.46Z"/>
        <path class="cls-1" d="m433.59,169.1v5.04c0,3.43-.28,3.64-3.43,3.64-2.45,0-2.66-.21-2.66-3.64v-4.48c-2.45,6.02-8.19,8.82-13.37,8.82-9.59.73-11.64-8.01-10.71-18.62-.07-6.37-.28-12.81-.28-15.89s0-3.08,3.5-3.08c2.94,0,2.87.14,2.87,3.57v21.35c0,5.11,1.96,7.91,6.72,7.91,20.01-2.03,4.77-35.69,14.63-32.83,2.73,0,2.87.14,2.87,3.57,0,6.86-.14,14.63-.14,24.64Z"/>
        <path class="cls-1" d="m445.98,143.06c0-2.03.14-2.17,3.57-2.17,2.73,0,2.87.07,2.87,3.08v6.44c3.17-11.99,19.89-15.6,20.86-.21,3.65-12.46,21.32-15.4,21,1.75,0,5.97-.19,14.83-.14,22.19,0,3.43-.21,3.64-3.36,3.64-2.45,0-2.66-.21-2.66-3.64v-21.28c-.69-13.26-15.29-6.44-14.84,6.79-.1,4.07-.06,9.98-.07,14.49,0,3.36-.21,3.64-3.36,3.64-2.52,0-2.73-.35-2.73-3.64v-21.28c0-4.55-1.82-7-5.32-7-11.05-.18-9.65,19.49-9.52,28.28,0,3.36-.21,3.64-3.36,3.64-2.52,0-2.73-.35-2.73-3.64v-8.05c0-4.97-.21-20.44-.21-23.03Z"/>
      </g>
    </g>
  </g>
</svg>