<?xml version="1.0" encoding="UTF-8"?>
<svg id="calque_2" data-name="Calque 2" xmlns="http://www.w3.org/2000/svg" viewBox="0 0 216.3 201.48">
  <defs>
    <style>
      .cls-1 {
        fill: #fafafa;
      }
    </style>
  </defs>
  <g id="Calque_1-2" data-name="Calque 1">
    <g>
      <g>
        <path class="cls-1" d="m108.15,120.68c-21.41,0-38.76,17.35-38.76,38.76,2.04,51.42,75.49,51.4,77.52,0,0-21.41-17.35-38.76-38.76-38.76Zm0,66.83c-15.5,0-28.07-12.57-28.07-28.07,1.48-37.24,54.67-37.23,56.14,0,0,15.5-12.57,28.07-28.07,28.07Z"/>
        <path class="cls-1" d="m108.15,138.66c-11.48,0-20.79,9.31-20.79,20.79,1.09,27.57,40.48,27.56,41.57,0,0-11.48-9.31-20.79-20.79-20.79Z"/>
      </g>
      <path class="cls-1" d="m108.15,0C-2.34,1.03-40.57,145.16,52.44,201.48v-40.32c0-30.77,24.94-55.71,55.71-55.71s55.71,24.94,55.71,55.71v40.32C256.92,145.11,218.57,1.01,108.15,0Zm.15,100.74c-15.91,0-26.09-16.04-27.86-27.86-4.13-27.57,34.67-51.55,36.72-49.78,1.21,1.04-10.99,10.49-8.86,21.92,2.72,14.61,27.86,14.79,27.86,27.86,0,15.39-12.47,27.86-27.86,27.86Z"/>
    </g>
  </g>
</svg>